<svg xmlns="http://www.w3.org/2000/svg" xmlns:xlink="http://www.w3.org/1999/xlink" width="500" zoomAndPan="magnify" viewBox="0 0 375 135.000003" height="180" preserveAspectRatio="xMidYMid meet" version="1.0"><defs><g/><clipPath id="5732673465"><path d="M 17 131 L 95 131 L 95 134.007812 L 17 134.007812 Z M 17 131 " clip-rule="nonzero"/></clipPath><clipPath id="184ea7a6d9"><path d="M 5.1875 4.183594 L 107.324219 4.183594 L 107.324219 129 L 5.1875 129 Z M 5.1875 4.183594 " clip-rule="nonzero"/></clipPath></defs><g fill="#ffffff" fill-opacity="1"><g transform="translate(124.875263, 82.805815)"><g><path d="M 9.015625 0.15625 C 8.398438 0.15625 7.78125 0 7.15625 -0.3125 C 6.53125 -0.625 6.21875 -0.988281 6.21875 -1.40625 C 6.21875 -1.707031 6.425781 -2.222656 6.84375 -2.953125 C 7.257812 -3.628906 7.441406 -4.148438 7.390625 -4.515625 L 7.15625 -11.34375 L 6.609375 -32.578125 L 6.453125 -41.984375 C 6.398438 -47.734375 6.269531 -51.335938 6.0625 -52.796875 C 5.957031 -53.359375 5.75 -54.003906 5.4375 -54.734375 C 5.070312 -55.722656 4.890625 -56.421875 4.890625 -56.828125 C 4.890625 -58.078125 6.863281 -58.703125 10.8125 -58.703125 L 11.203125 -58.703125 C 13.835938 -58.703125 16.113281 -57.796875 18.03125 -55.984375 C 19.539062 -54.578125 20.890625 -52.375 22.078125 -49.375 C 22.910156 -46.988281 23.535156 -44.316406 23.953125 -41.359375 C 24.160156 -39.804688 24.335938 -37.421875 24.484375 -34.203125 L 24.484375 -31.796875 C 24.484375 -28.585938 24.054688 -25.101562 23.203125 -21.34375 C 22.347656 -17.582031 21.144531 -14.070312 19.59375 -10.8125 C 18.65625 -8.738281 17.445312 -6.867188 15.96875 -5.203125 C 14.5 -3.546875 13.085938 -2.238281 11.734375 -1.28125 C 10.390625 -0.320312 9.484375 0.15625 9.015625 0.15625 Z M 10.1875 -3.8125 C 12.101562 -4.789062 13.8125 -6.226562 15.3125 -8.125 C 16.820312 -10.019531 18.015625 -12.109375 18.890625 -14.390625 C 19.671875 -16.304688 20.316406 -18.492188 20.828125 -20.953125 C 21.347656 -23.410156 21.710938 -25.703125 21.921875 -27.828125 C 22.078125 -29.703125 22.15625 -31.492188 22.15625 -33.203125 C 22.15625 -48.335938 17.984375 -55.90625 9.640625 -55.90625 C 8.554688 -55.90625 8.015625 -55.617188 8.015625 -55.046875 C 8.015625 -53.234375 8.113281 -51.082031 8.3125 -48.59375 C 8.519531 -46.050781 8.625 -43.898438 8.625 -42.140625 C 8.625 -39.285156 8.832031 -34.335938 9.25 -27.296875 C 9.613281 -21.171875 9.796875 -16.242188 9.796875 -12.515625 L 9.796875 -3.8125 Z M 10.1875 -3.8125 "/></g></g></g><g fill="#ffffff" fill-opacity="1"><g transform="translate(154.493403, 82.805815)"><g><path d="M 17.5 0.9375 C 16.875 0.257812 16.195312 -1.523438 15.46875 -4.421875 C 14.75 -7.328125 14.078125 -10.597656 13.453125 -14.234375 C 13.035156 -17.179688 12.4375 -20.109375 11.65625 -23.015625 C 11.039062 -25.609375 10.445312 -26.90625 9.875 -26.90625 L 9.640625 -26.90625 C 8.503906 -26.90625 7.9375 -26.539062 7.9375 -25.8125 C 7.9375 -22.082031 8.140625 -16.40625 8.546875 -8.78125 C 8.753906 -4.113281 8.988281 -1.394531 9.25 -0.625 L 8.625 0.703125 L 7.546875 0.703125 L 6.921875 0.078125 C 6.085938 -23.867188 5.671875 -40.195312 5.671875 -48.90625 C 5.671875 -49.476562 5.707031 -49.941406 5.78125 -50.296875 C 5.863281 -50.660156 6.035156 -51 6.296875 -51.3125 C 6.503906 -51.675781 6.867188 -51.859375 7.390625 -51.859375 C 10.023438 -51.859375 12.144531 -51.207031 13.75 -49.90625 C 15.363281 -48.613281 16.171875 -46.75 16.171875 -44.3125 L 16.171875 -38.640625 C 16.171875 -37.660156 15.847656 -36.335938 15.203125 -34.671875 C 14.554688 -33.015625 13.84375 -31.488281 13.0625 -30.09375 L 12.046875 -28.140625 C 12.617188 -25.503906 13.742188 -20.75 15.421875 -13.875 C 17.109375 -7.007812 18.03125 -3.367188 18.1875 -2.953125 C 18.238281 -2.898438 18.300781 -2.769531 18.375 -2.5625 C 18.457031 -2.351562 18.628906 -2.039062 18.890625 -1.625 C 19.253906 -0.90625 19.4375 -0.285156 19.4375 0.234375 C 19.4375 0.960938 19.148438 1.328125 18.578125 1.328125 Z M 8.3125 -28.84375 C 9.300781 -28.84375 10.179688 -29.332031 10.953125 -30.3125 C 11.734375 -31.300781 12.359375 -32.570312 12.828125 -34.125 C 13.660156 -37.289062 14.078125 -39.804688 14.078125 -41.671875 C 14.078125 -42.867188 14.007812 -43.851562 13.875 -44.625 C 13.75 -45.40625 13.53125 -46.234375 13.21875 -47.109375 C 12.59375 -48.929688 11.113281 -49.84375 8.78125 -49.84375 C 8.519531 -49.84375 8.3125 -49.617188 8.15625 -49.171875 C 8.007812 -48.734375 7.9375 -48.28125 7.9375 -47.8125 C 7.9375 -44.34375 7.988281 -41.207031 8.09375 -38.40625 C 8.132812 -35.601562 8.15625 -32.46875 8.15625 -29 Z M 8.3125 -28.84375 "/></g></g></g><g fill="#ffffff" fill-opacity="1"><g transform="translate(177.037395, 82.805815)"><g><path d="M 9.796875 0 C 8.609375 0 7.910156 -0.257812 7.703125 -0.78125 C 7.441406 -0.78125 7.234375 -0.753906 7.078125 -0.703125 L 6.453125 -0.703125 C 5.316406 -0.703125 4.59375 -0.960938 4.28125 -1.484375 C 4.28125 -1.835938 4.484375 -2.144531 4.890625 -2.40625 L 5.28125 -2.796875 L 7.546875 -2.796875 L 7.859375 -3.109375 L 8.015625 -3.8125 L 8.09375 -4.75 C 8.09375 -7.90625 8.015625 -10.726562 7.859375 -13.21875 L 7.703125 -16.09375 L 7.546875 -21.765625 C 7.546875 -23.785156 7.625 -26.816406 7.78125 -30.859375 L 7.9375 -39.890625 C 7.9375 -43.828125 7.804688 -46.832031 7.546875 -48.90625 C 7.078125 -49.0625 6.296875 -49.140625 5.203125 -49.140625 L 4.359375 -49.0625 C 4.046875 -49.007812 3.707031 -48.984375 3.34375 -48.984375 C 2.351562 -48.984375 1.859375 -49.421875 1.859375 -50.296875 C 1.859375 -50.503906 2.09375 -50.710938 2.5625 -50.921875 C 3.03125 -51.128906 3.421875 -51.234375 3.734375 -51.234375 C 5.703125 -51.234375 7.671875 -51.128906 9.640625 -50.921875 C 10.828125 -50.867188 12.019531 -50.632812 13.21875 -50.21875 C 14.144531 -49.914062 14.609375 -49.476562 14.609375 -48.90625 C 14.609375 -48.800781 14.535156 -48.59375 14.390625 -48.28125 L 12.59375 -48.125 C 12.226562 -48.4375 11.476562 -48.59375 10.34375 -48.59375 L 9.953125 -48.359375 C 10.109375 -47.890625 10.1875 -46.515625 10.1875 -44.234375 C 10.1875 -40.816406 10.160156 -37.734375 10.109375 -34.984375 L 9.953125 -25.734375 C 9.953125 -23.398438 10.054688 -20.578125 10.265625 -17.265625 C 10.421875 -13.472656 10.5 -10.617188 10.5 -8.703125 L 10.5 -7.703125 C 10.445312 -7.335938 10.421875 -6.867188 10.421875 -6.296875 C 10.421875 -5.109375 10.5 -4.382812 10.65625 -4.125 L 10.578125 -3.96875 C 10.578125 -3.445312 11.144531 -3.1875 12.28125 -3.1875 C 12.75 -3.1875 13.140625 -3.210938 13.453125 -3.265625 L 14.609375 -3.265625 C 16.117188 -3.265625 16.875 -2.898438 16.875 -2.171875 C 16.875 -1.710938 16.71875 -1.335938 16.40625 -1.046875 C 16.09375 -0.765625 15.675781 -0.625 15.15625 -0.625 C 14.695312 -0.625 14.285156 -0.675781 13.921875 -0.78125 C 13.503906 -0.832031 13.0625 -0.859375 12.59375 -0.859375 C 12.28125 -0.859375 11.816406 -0.726562 11.203125 -0.46875 C 10.578125 -0.15625 10.109375 0 9.796875 0 Z M 9.796875 0 "/></g></g></g><g fill="#ffffff" fill-opacity="1"><g transform="translate(195.461281, 82.805815)"><g><path d="M 6.6875 0.9375 C 6.113281 -2.332031 5.828125 -6.066406 5.828125 -10.265625 C 5.828125 -11.921875 5.90625 -14.332031 6.0625 -17.5 L 6.21875 -24.71875 C 5.851562 -25.445312 5.671875 -26.046875 5.671875 -26.515625 C 6.191406 -27.335938 6.453125 -29.722656 6.453125 -33.671875 C 6.453125 -43.097656 6.320312 -48.125 6.0625 -48.75 C 6.53125 -50.039062 6.894531 -50.6875 7.15625 -50.6875 L 10.578125 -50.6875 C 11.140625 -50.6875 11.953125 -50.414062 13.015625 -49.875 C 14.078125 -49.332031 14.972656 -48.75 15.703125 -48.125 C 17.003906 -46.9375 17.65625 -43.878906 17.65625 -38.953125 C 17.65625 -36.304688 17.578125 -34.285156 17.421875 -32.890625 C 17.316406 -31.898438 17.144531 -31.117188 16.90625 -30.546875 C 16.675781 -29.984375 16.328125 -29.335938 15.859375 -28.609375 C 15.078125 -27.421875 13.753906 -26.382812 11.890625 -25.5 C 11.117188 -25.082031 10.03125 -24.671875 8.625 -24.265625 L 8.625 -15 C 8.625 -13.707031 8.753906 -11.171875 9.015625 -7.390625 L 9.171875 -4.890625 L 9.328125 0.15625 C 9.328125 1.09375 8.835938 1.5625 7.859375 1.5625 Z M 9.171875 -26.90625 C 10.671875 -26.90625 11.941406 -27.601562 12.984375 -29 C 13.347656 -29.519531 13.6875 -30.21875 14 -31.09375 C 14.3125 -31.976562 14.515625 -32.835938 14.609375 -33.671875 C 14.921875 -35.171875 15.078125 -36.90625 15.078125 -38.875 L 15.078125 -40.96875 C 15.078125 -41.695312 15.050781 -42.394531 15 -43.0625 C 14.945312 -43.738281 14.84375 -44.390625 14.6875 -45.015625 C 14.488281 -45.691406 14.21875 -46.25 13.875 -46.6875 C 13.539062 -47.125 13.085938 -47.5 12.515625 -47.8125 C 11.890625 -48.125 11.140625 -48.28125 10.265625 -48.28125 C 9.640625 -48.28125 9.195312 -48.125 8.9375 -47.8125 C 8.675781 -47.5 8.546875 -46.957031 8.546875 -46.1875 C 8.546875 -44.9375 8.625 -43.066406 8.78125 -40.578125 L 8.9375 -34.984375 C 8.9375 -33.640625 8.882812 -32.421875 8.78125 -31.328125 L 8.625 -27.671875 Z M 9.171875 -26.90625 "/></g></g></g><g fill="#ffffff" fill-opacity="1"><g transform="translate(215.906349, 82.805815)"><g/></g></g><g fill="#ffffff" fill-opacity="1"><g transform="translate(229.199527, 82.805815)"><g><path d="M 11.65625 0.234375 C 11.65625 -3.753906 11.019531 -9.632812 9.75 -17.40625 C 8.488281 -25.1875 6.820312 -33.691406 4.75 -42.921875 L 4.125 -45.328125 L 3.109375 -48.90625 C 2.796875 -49.988281 2.640625 -50.660156 2.640625 -50.921875 C 2.640625 -51.078125 2.753906 -51.269531 2.984375 -51.5 C 3.222656 -51.738281 3.445312 -51.859375 3.65625 -51.859375 C 4.382812 -51.859375 4.953125 -51.054688 5.359375 -49.453125 C 5.566406 -48.773438 5.757812 -48.007812 5.9375 -47.15625 C 6.125 -46.300781 6.269531 -45.691406 6.375 -45.328125 C 6.476562 -44.546875 6.554688 -44.078125 6.609375 -43.921875 C 7.597656 -39.929688 8.191406 -37.394531 8.390625 -36.3125 L 9.171875 -32.34375 L 9.875 -28.609375 L 10.578125 -24.640625 C 10.734375 -23.242188 10.941406 -22.03125 11.203125 -21 L 12.359375 -13.375 C 12.359375 -13.164062 12.539062 -11.84375 12.90625 -9.40625 L 13.453125 -5.59375 C 14.484375 -8.96875 15.363281 -14.101562 16.09375 -21 C 16.820312 -27.425781 17.859375 -33.878906 19.203125 -40.359375 C 20.347656 -45.953125 21.148438 -50.019531 21.609375 -52.5625 L 22.625 -52.953125 C 22.832031 -52.898438 23.023438 -52.796875 23.203125 -52.640625 C 23.390625 -52.484375 23.484375 -52.328125 23.484375 -52.171875 C 23.484375 -51.023438 23.25 -49.46875 22.78125 -47.5 L 22.3125 -45.484375 L 21 -39.34375 C 20.21875 -35.96875 19.679688 -33.375 19.390625 -31.5625 C 19.109375 -29.75 18.785156 -27.132812 18.421875 -23.71875 L 18.265625 -21.921875 C 18.003906 -19.128906 17.8125 -17.238281 17.6875 -16.25 C 17.5625 -15.257812 17.265625 -13.988281 16.796875 -12.4375 C 16.378906 -10.882812 16.039062 -9.507812 15.78125 -8.3125 L 15.625 -6.53125 C 15.519531 -4.71875 15.3125 -3.109375 15 -1.703125 C 14.59375 0.0546875 13.765625 0.9375 12.515625 0.9375 Z M 13.375 -5.359375 L 13.296875 -5.203125 L 13.375 -5.046875 Z M 13.375 -5.359375 "/></g></g></g><g fill="#ffffff" fill-opacity="1"><g transform="translate(256.874204, 82.805815)"><g><path d="M 20.921875 0.703125 C 20.140625 0.703125 19.644531 0.609375 19.4375 0.421875 C 19.226562 0.242188 19.070312 -0.234375 18.96875 -1.015625 C 18.5 -4.796875 18.210938 -7.15625 18.109375 -8.09375 L 17.734375 -11.203125 C 16.585938 -11.453125 15.289062 -11.578125 13.84375 -11.578125 L 11.046875 -11.734375 C 9.796875 -11.890625 8.882812 -11.96875 8.3125 -11.96875 C 8.007812 -11.96875 7.832031 -11.835938 7.78125 -11.578125 C 7.78125 -11.421875 7.753906 -11.34375 7.703125 -11.34375 L 7.546875 -9.796875 C 7.492188 -8.859375 7.207031 -6.992188 6.6875 -4.203125 C 6.425781 -2.796875 6.113281 -1.707031 5.75 -0.9375 C 5.332031 -0.0507812 4.945312 0.390625 4.59375 0.390625 C 4.28125 0.390625 3.941406 0.25 3.578125 -0.03125 C 3.210938 -0.320312 3.03125 -0.625 3.03125 -0.9375 L 3.1875 -1.40625 C 4.125 -5.082031 4.898438 -8.734375 5.515625 -12.359375 L 6.453125 -17.1875 L 7.390625 -23.09375 C 7.390625 -23.09375 7.671875 -24.800781 8.234375 -28.21875 C 8.492188 -29.625 8.960938 -31.878906 9.640625 -34.984375 C 10.367188 -38.515625 10.8125 -40.925781 10.96875 -42.21875 C 11.019531 -42.375 11.125 -43.332031 11.28125 -45.09375 C 11.476562 -47.0625 11.65625 -48.515625 11.8125 -49.453125 C 11.96875 -50.796875 12.125 -51.570312 12.28125 -51.78125 L 12.828125 -51.78125 C 12.984375 -51.726562 13.164062 -51.703125 13.375 -51.703125 C 14 -51.703125 14.460938 -51.859375 14.765625 -52.171875 C 15.128906 -52.171875 15.453125 -52.050781 15.734375 -51.8125 C 16.023438 -51.582031 16.171875 -51.3125 16.171875 -51 C 16.171875 -48.507812 16.351562 -45.660156 16.71875 -42.453125 C 16.925781 -40.796875 17.082031 -39.421875 17.1875 -38.328125 C 17.75 -31.640625 19.195312 -19.097656 21.53125 -0.703125 L 21.53125 -0.46875 C 21.53125 0.0507812 21.328125 0.441406 20.921875 0.703125 Z M 17.34375 -13.296875 C 16.820312 -20.753906 15.835938 -31.769531 14.390625 -46.34375 L 10.1875 -25.578125 C 8.988281 -19.617188 8.390625 -15.863281 8.390625 -14.3125 C 8.390625 -14.050781 9.375 -13.816406 11.34375 -13.609375 C 13.320312 -13.398438 15.0625 -13.296875 16.5625 -13.296875 Z M 17.34375 -13.296875 "/></g></g></g><g fill="#ffffff" fill-opacity="1"><g transform="translate(281.206152, 82.805815)"><g><path d="M 13.765625 1.171875 C 12.929688 1.171875 12.035156 0.894531 11.078125 0.34375 C 10.117188 -0.195312 9.328125 -0.832031 8.703125 -1.5625 C 7.984375 -2.488281 7.414062 -5.101562 7 -9.40625 C 6.582031 -13.707031 6.320312 -18.632812 6.21875 -24.1875 C 6.21875 -25.425781 6.191406 -26.359375 6.140625 -26.984375 C 6.035156 -39.992188 5.828125 -47.691406 5.515625 -50.078125 L 5.984375 -51.15625 C 7.179688 -51 7.78125 -49.578125 7.78125 -46.890625 L 8.015625 -26.28125 C 8.015625 -24.832031 8.140625 -22.082031 8.390625 -18.03125 C 8.703125 -14.40625 8.859375 -11.660156 8.859375 -9.796875 C 8.859375 -3.890625 10.800781 -0.9375 14.6875 -0.9375 C 17.070312 -0.9375 18.601562 -6.378906 19.28125 -17.265625 L 19.359375 -18.8125 C 19.722656 -33.070312 19.90625 -43.617188 19.90625 -50.453125 L 19.828125 -51.15625 C 19.773438 -51.363281 19.75 -51.597656 19.75 -51.859375 C 19.75 -52.429688 20.1875 -52.71875 21.0625 -52.71875 C 21.6875 -52.71875 22.078125 -52.5625 22.234375 -52.25 C 22.335938 -51.726562 22.390625 -50.820312 22.390625 -49.53125 C 22.390625 -45.59375 22.234375 -42.945312 21.921875 -41.59375 L 22 -41.125 C 22 -40.457031 21.921875 -39.421875 21.765625 -38.015625 L 21.609375 -34.90625 L 21.609375 -34.125 C 21.660156 -33.925781 21.6875 -33.671875 21.6875 -33.359375 C 21.582031 -32.109375 21.53125 -30.914062 21.53125 -29.78125 C 21.476562 -29.414062 21.453125 -28.84375 21.453125 -28.0625 C 21.347656 -23.144531 21.242188 -18.867188 21.140625 -15.234375 C 20.992188 -10.722656 20.375 -6.914062 19.28125 -3.8125 C 18.144531 -0.488281 16.304688 1.171875 13.765625 1.171875 Z M 13.765625 1.171875 "/></g></g></g><g fill="#ffffff" fill-opacity="1"><g transform="translate(309.658205, 82.805815)"><g><path d="M 7 1.015625 C 6.269531 1.015625 5.828125 0.414062 5.671875 -0.78125 C 5.773438 -1.09375 5.828125 -1.945312 5.828125 -3.34375 C 5.828125 -8.113281 5.90625 -15.1875 6.0625 -24.5625 C 6.21875 -33.894531 6.296875 -40.632812 6.296875 -44.78125 L 6.453125 -47.578125 L 6.6875 -49.921875 C 6.6875 -50.273438 6.867188 -50.453125 7.234375 -50.453125 C 7.492188 -50.453125 7.851562 -50.375 8.3125 -50.21875 L 8.546875 -50.15625 C 8.546875 -49.007812 8.519531 -47.96875 8.46875 -47.03125 L 8.46875 -35.53125 C 8.519531 -33.039062 8.546875 -30.21875 8.546875 -27.0625 C 8.492188 -26.800781 8.46875 -26.226562 8.46875 -25.34375 L 8.390625 -23.71875 C 8.335938 -22.675781 8.3125 -21.613281 8.3125 -20.53125 C 8.3125 -19.332031 8.335938 -18.242188 8.390625 -17.265625 L 8.46875 -13.921875 L 8.234375 -13.296875 L 8.3125 -13.375 C 8.3125 -13.21875 8.285156 -13.113281 8.234375 -13.0625 L 8.234375 -12.75 C 8.234375 -12.332031 8.3125 -11.96875 8.46875 -11.65625 L 8.234375 -4.203125 L 8.234375 -3.734375 C 8.234375 -2.847656 8.257812 -2.328125 8.3125 -2.171875 C 8.3125 -1.910156 8.441406 -1.78125 8.703125 -1.78125 L 12.75 -1.625 C 13.945312 -1.625 14.765625 -1.613281 15.203125 -1.59375 C 15.640625 -1.570312 15.910156 -1.5625 16.015625 -1.5625 L 16.25 -1.5625 C 16.507812 -1.5625 16.769531 -1.414062 17.03125 -1.125 C 17.289062 -0.84375 17.421875 -0.546875 17.421875 -0.234375 C 17.421875 0.390625 17.003906 0.726562 16.171875 0.78125 C 15.285156 0.726562 13.132812 0.703125 9.71875 0.703125 L 9.875 0.78125 C 9.351562 0.78125 8.859375 0.804688 8.390625 0.859375 C 7.984375 0.960938 7.519531 1.015625 7 1.015625 Z M 7 1.015625 "/></g></g></g><g fill="#ffffff" fill-opacity="1"><g transform="translate(329.014928, 82.805815)"><g><path d="M 10.734375 -1.09375 L 10.65625 -3.96875 C 10.601562 -4.789062 10.578125 -5.722656 10.578125 -6.765625 C 10.578125 -7.285156 10.601562 -7.726562 10.65625 -8.09375 L 10.734375 -9.484375 C 10.734375 -10.003906 10.628906 -10.625 10.421875 -11.34375 C 10.421875 -14.820312 10.160156 -21.28125 9.640625 -30.71875 C 9.117188 -39.832031 8.832031 -46.023438 8.78125 -49.296875 C 5.570312 -49.296875 3.421875 -49.375 2.328125 -49.53125 C 1.296875 -49.789062 0.78125 -50.203125 0.78125 -50.765625 C 1.039062 -51.335938 1.53125 -51.625 2.25 -51.625 C 3.8125 -51.625 6.066406 -51.519531 9.015625 -51.3125 C 11.710938 -51.050781 13.96875 -50.921875 15.78125 -50.921875 L 17.421875 -50.921875 L 19.046875 -51 C 19.984375 -51 20.453125 -50.664062 20.453125 -50 C 20.453125 -49.6875 20.28125 -49.4375 19.9375 -49.25 C 19.601562 -49.070312 19.203125 -48.984375 18.734375 -48.984375 C 17.703125 -48.984375 16.613281 -49.035156 15.46875 -49.140625 L 12.125 -49.296875 C 11.914062 -49.296875 11.8125 -49.21875 11.8125 -49.0625 C 11.757812 -48.90625 11.734375 -48.410156 11.734375 -47.578125 C 11.734375 -42.554688 12.046875 -34.9375 12.671875 -24.71875 C 13.242188 -14.144531 13.53125 -6.550781 13.53125 -1.9375 C 13.53125 -1.582031 13.304688 -1.25 12.859375 -0.9375 C 12.421875 -0.625 11.992188 -0.46875 11.578125 -0.46875 Z M 10.734375 -1.09375 "/></g></g></g><g fill="#ffffff" fill-opacity="1"><g transform="translate(129.126149, 117.097182)"><g><path d="M 11.359375 0 L 11.359375 -7.046875 L 3.828125 -7.046875 L 3.828125 0 L 1.671875 0 C 1.753906 -0.414062 1.800781 -1.019531 1.8125 -1.8125 C 1.820312 -2.601562 1.828125 -3.515625 1.828125 -4.546875 L 1.828125 -10.71875 C 1.828125 -11.757812 1.820312 -12.671875 1.8125 -13.453125 C 1.800781 -14.242188 1.753906 -14.847656 1.671875 -15.265625 L 3.828125 -15.265625 L 3.828125 -8.71875 L 11.359375 -8.71875 L 11.359375 -15.265625 L 13.484375 -15.265625 C 13.410156 -14.847656 13.367188 -14.242188 13.359375 -13.453125 C 13.347656 -12.671875 13.34375 -11.757812 13.34375 -10.71875 L 13.34375 -4.546875 C 13.34375 -3.515625 13.347656 -2.601562 13.359375 -1.8125 C 13.367188 -1.019531 13.410156 -0.414062 13.484375 0 Z M 11.359375 0 "/></g></g></g><g fill="#ffffff" fill-opacity="1"><g transform="translate(144.545601, 117.097182)"><g><path d="M 9.9375 -3.859375 C 9.9375 -3.109375 10.007812 -2.421875 10.15625 -1.796875 C 10.300781 -1.179688 10.488281 -0.582031 10.71875 0 L 8.859375 0 C 8.773438 -0.164062 8.679688 -0.390625 8.578125 -0.671875 C 8.484375 -0.960938 8.398438 -1.28125 8.328125 -1.625 C 7.703125 -0.957031 7.050781 -0.472656 6.375 -0.171875 C 5.707031 0.117188 5.046875 0.265625 4.390625 0.265625 C 3.898438 0.265625 3.445312 0.1875 3.03125 0.03125 C 2.613281 -0.125 2.253906 -0.335938 1.953125 -0.609375 C 1.660156 -0.878906 1.425781 -1.191406 1.25 -1.546875 C 1.082031 -1.898438 1 -2.273438 1 -2.671875 C 1 -3.066406 1.0625 -3.46875 1.1875 -3.875 C 1.320312 -4.28125 1.546875 -4.65625 1.859375 -5 C 2.179688 -5.351562 2.609375 -5.648438 3.140625 -5.890625 C 3.679688 -6.140625 4.359375 -6.304688 5.171875 -6.390625 C 5.347656 -6.410156 5.578125 -6.429688 5.859375 -6.453125 C 6.140625 -6.472656 6.421875 -6.5 6.703125 -6.53125 C 6.984375 -6.5625 7.242188 -6.582031 7.484375 -6.59375 C 7.722656 -6.613281 7.898438 -6.628906 8.015625 -6.640625 L 8.015625 -7.421875 C 8.015625 -8.054688 7.789062 -8.507812 7.34375 -8.78125 C 6.894531 -9.0625 6.28125 -9.203125 5.5 -9.203125 C 4.9375 -9.203125 4.378906 -9.09375 3.828125 -8.875 C 3.273438 -8.65625 2.691406 -8.328125 2.078125 -7.890625 C 2.085938 -8.003906 2.09375 -8.15625 2.09375 -8.34375 C 2.101562 -8.53125 2.113281 -8.722656 2.125 -8.921875 C 2.132812 -9.117188 2.144531 -9.3125 2.15625 -9.5 C 2.164062 -9.6875 2.179688 -9.832031 2.203125 -9.9375 C 2.460938 -10.050781 2.726562 -10.164062 3 -10.28125 C 3.28125 -10.394531 3.570312 -10.492188 3.875 -10.578125 C 4.175781 -10.671875 4.5 -10.742188 4.84375 -10.796875 C 5.195312 -10.847656 5.566406 -10.875 5.953125 -10.875 C 6.554688 -10.875 7.101562 -10.800781 7.59375 -10.65625 C 8.082031 -10.507812 8.5 -10.300781 8.84375 -10.03125 C 9.195312 -9.769531 9.46875 -9.460938 9.65625 -9.109375 C 9.84375 -8.753906 9.9375 -8.363281 9.9375 -7.9375 Z M 8.015625 -5.171875 C 7.878906 -5.171875 7.691406 -5.160156 7.453125 -5.140625 C 7.210938 -5.117188 6.957031 -5.09375 6.6875 -5.0625 C 6.425781 -5.03125 6.164062 -5 5.90625 -4.96875 C 5.65625 -4.945312 5.445312 -4.925781 5.28125 -4.90625 C 4.832031 -4.851562 4.453125 -4.765625 4.140625 -4.640625 C 3.835938 -4.523438 3.59375 -4.378906 3.40625 -4.203125 C 3.21875 -4.023438 3.078125 -3.828125 2.984375 -3.609375 C 2.898438 -3.390625 2.859375 -3.160156 2.859375 -2.921875 C 2.859375 -2.441406 3.019531 -2.078125 3.34375 -1.828125 C 3.675781 -1.578125 4.128906 -1.453125 4.703125 -1.453125 C 4.972656 -1.453125 5.238281 -1.472656 5.5 -1.515625 C 5.757812 -1.566406 6.019531 -1.660156 6.28125 -1.796875 C 6.550781 -1.929688 6.828125 -2.125 7.109375 -2.375 C 7.390625 -2.632812 7.691406 -2.972656 8.015625 -3.390625 Z M 8.015625 -5.171875 "/></g></g></g><g fill="#ffffff" fill-opacity="1"><g transform="translate(156.26047, 117.097182)"><g><path d="M 9.046875 0 L 9.046875 -5.75 C 9.046875 -6.40625 9.003906 -6.941406 8.921875 -7.359375 C 8.835938 -7.785156 8.707031 -8.125 8.53125 -8.375 C 8.351562 -8.625 8.132812 -8.796875 7.875 -8.890625 C 7.613281 -8.992188 7.3125 -9.046875 6.96875 -9.046875 C 6.582031 -9.046875 6.207031 -8.957031 5.84375 -8.78125 C 5.488281 -8.601562 5.160156 -8.367188 4.859375 -8.078125 C 4.566406 -7.796875 4.304688 -7.476562 4.078125 -7.125 C 3.847656 -6.769531 3.675781 -6.414062 3.5625 -6.0625 L 3.5625 0 L 1.625 0 L 1.625 -6.4375 C 1.625 -7.457031 1.5625 -8.328125 1.4375 -9.046875 C 1.320312 -9.773438 1.210938 -10.316406 1.109375 -10.671875 L 3 -10.671875 C 3.03125 -10.554688 3.0625 -10.410156 3.09375 -10.234375 C 3.132812 -10.054688 3.171875 -9.867188 3.203125 -9.671875 C 3.242188 -9.484375 3.28125 -9.296875 3.3125 -9.109375 C 3.351562 -8.921875 3.378906 -8.757812 3.390625 -8.625 C 4.066406 -9.425781 4.738281 -10 5.40625 -10.34375 C 6.082031 -10.695312 6.789062 -10.875 7.53125 -10.875 C 8.65625 -10.875 9.507812 -10.515625 10.09375 -9.796875 C 10.6875 -9.078125 10.984375 -7.988281 10.984375 -6.53125 L 10.984375 0 Z M 9.046875 0 "/></g></g></g><g fill="#ffffff" fill-opacity="1"><g transform="translate(168.646358, 117.097182)"><g><path d="M 10.765625 -5.53125 C 10.765625 -4.207031 10.835938 -3.097656 10.984375 -2.203125 C 11.140625 -1.316406 11.328125 -0.582031 11.546875 0 L 9.6875 0 C 9.59375 -0.175781 9.492188 -0.445312 9.390625 -0.8125 C 9.285156 -1.175781 9.191406 -1.550781 9.109375 -1.9375 C 8.597656 -1.21875 8.023438 -0.671875 7.390625 -0.296875 C 6.753906 0.078125 6.050781 0.265625 5.28125 0.265625 C 4.644531 0.265625 4.066406 0.144531 3.546875 -0.09375 C 3.035156 -0.34375 2.597656 -0.6875 2.234375 -1.125 C 1.867188 -1.5625 1.585938 -2.09375 1.390625 -2.71875 C 1.203125 -3.34375 1.109375 -4.039062 1.109375 -4.8125 C 1.109375 -5.726562 1.234375 -6.5625 1.484375 -7.3125 C 1.742188 -8.0625 2.09375 -8.703125 2.53125 -9.234375 C 2.976562 -9.765625 3.503906 -10.171875 4.109375 -10.453125 C 4.710938 -10.734375 5.363281 -10.875 6.0625 -10.875 C 6.507812 -10.875 6.984375 -10.78125 7.484375 -10.59375 C 7.984375 -10.414062 8.441406 -10.210938 8.859375 -9.984375 L 8.859375 -12.90625 C 8.859375 -14.601562 8.769531 -15.878906 8.59375 -16.734375 L 10.765625 -16.734375 Z M 8.859375 -8.328125 C 8.585938 -8.460938 8.34375 -8.578125 8.125 -8.671875 C 7.90625 -8.773438 7.6875 -8.859375 7.46875 -8.921875 C 7.25 -8.984375 7.023438 -9.03125 6.796875 -9.0625 C 6.566406 -9.09375 6.320312 -9.109375 6.0625 -9.109375 C 5.675781 -9.109375 5.296875 -9.015625 4.921875 -8.828125 C 4.554688 -8.648438 4.234375 -8.390625 3.953125 -8.046875 C 3.671875 -7.703125 3.445312 -7.28125 3.28125 -6.78125 C 3.113281 -6.289062 3.03125 -5.738281 3.03125 -5.125 C 3.03125 -3.894531 3.238281 -2.96875 3.65625 -2.34375 C 4.070312 -1.71875 4.738281 -1.40625 5.65625 -1.40625 C 5.96875 -1.40625 6.28125 -1.484375 6.59375 -1.640625 C 6.914062 -1.804688 7.21875 -2.019531 7.5 -2.28125 C 7.78125 -2.539062 8.035156 -2.832031 8.265625 -3.15625 C 8.503906 -3.488281 8.703125 -3.832031 8.859375 -4.1875 Z M 8.859375 -8.328125 "/></g></g></g><g fill="#ffffff" fill-opacity="1"><g transform="translate(181.088165, 117.097182)"><g/></g></g><g fill="#ffffff" fill-opacity="1"><g transform="translate(187.420904, 117.097182)"><g><path d="M 3 -10.671875 C 3.070312 -10.484375 3.144531 -10.222656 3.21875 -9.890625 C 3.289062 -9.566406 3.347656 -9.160156 3.390625 -8.671875 C 3.890625 -9.328125 4.460938 -9.859375 5.109375 -10.265625 C 5.753906 -10.671875 6.472656 -10.875 7.265625 -10.875 C 7.867188 -10.875 8.414062 -10.738281 8.90625 -10.46875 C 9.394531 -10.207031 9.8125 -9.84375 10.15625 -9.375 C 10.5 -8.914062 10.765625 -8.359375 10.953125 -7.703125 C 11.148438 -7.054688 11.25 -6.351562 11.25 -5.59375 C 11.25 -4.695312 11.125 -3.882812 10.875 -3.15625 C 10.625 -2.4375 10.28125 -1.820312 9.84375 -1.3125 C 9.414062 -0.8125 8.910156 -0.421875 8.328125 -0.140625 C 7.753906 0.128906 7.140625 0.265625 6.484375 0.265625 C 5.929688 0.265625 5.425781 0.160156 4.96875 -0.046875 C 4.519531 -0.253906 4.050781 -0.535156 3.5625 -0.890625 L 3.5625 1.578125 C 3.5625 1.992188 3.566406 2.375 3.578125 2.71875 C 3.585938 3.0625 3.601562 3.367188 3.625 3.640625 C 3.644531 3.921875 3.671875 4.179688 3.703125 4.421875 C 3.742188 4.671875 3.785156 4.90625 3.828125 5.125 L 1.625 5.125 L 1.625 -5.078125 C 1.625 -6.378906 1.59375 -7.488281 1.53125 -8.40625 C 1.476562 -9.320312 1.335938 -10.078125 1.109375 -10.671875 Z M 3.5625 -2.734375 C 3.914062 -2.472656 4.222656 -2.257812 4.484375 -2.09375 C 4.742188 -1.9375 4.984375 -1.804688 5.203125 -1.703125 C 5.421875 -1.609375 5.628906 -1.539062 5.828125 -1.5 C 6.023438 -1.46875 6.242188 -1.453125 6.484375 -1.453125 C 6.859375 -1.453125 7.210938 -1.539062 7.546875 -1.71875 C 7.890625 -1.894531 8.191406 -2.148438 8.453125 -2.484375 C 8.710938 -2.816406 8.914062 -3.21875 9.0625 -3.6875 C 9.21875 -4.15625 9.296875 -4.6875 9.296875 -5.28125 C 9.296875 -5.863281 9.242188 -6.390625 9.140625 -6.859375 C 9.035156 -7.328125 8.878906 -7.726562 8.671875 -8.0625 C 8.460938 -8.394531 8.207031 -8.648438 7.90625 -8.828125 C 7.613281 -9.015625 7.28125 -9.109375 6.90625 -9.109375 C 6.601562 -9.109375 6.296875 -9.039062 5.984375 -8.90625 C 5.671875 -8.78125 5.363281 -8.582031 5.0625 -8.3125 C 4.769531 -8.050781 4.492188 -7.726562 4.234375 -7.34375 C 3.972656 -6.957031 3.75 -6.515625 3.5625 -6.015625 Z M 3.5625 -2.734375 "/></g></g></g><g fill="#ffffff" fill-opacity="1"><g transform="translate(199.653017, 117.097182)"><g><path d="M 3.921875 -4.96875 C 3.921875 -4.632812 3.921875 -4.238281 3.921875 -3.78125 C 3.929688 -3.320312 3.945312 -2.859375 3.96875 -2.390625 C 3.988281 -1.921875 4.007812 -1.472656 4.03125 -1.046875 C 4.050781 -0.628906 4.082031 -0.28125 4.125 0 L 1.984375 0 L 1.984375 -5.53125 C 1.984375 -6.050781 1.976562 -6.554688 1.96875 -7.046875 C 1.96875 -7.546875 1.960938 -8.015625 1.953125 -8.453125 C 1.941406 -8.898438 1.925781 -9.3125 1.90625 -9.6875 C 1.894531 -10.0625 1.867188 -10.390625 1.828125 -10.671875 L 3.921875 -10.671875 Z M 1.625 -14.0625 C 1.625 -14.457031 1.738281 -14.789062 1.96875 -15.0625 C 2.207031 -15.34375 2.523438 -15.484375 2.921875 -15.484375 C 3.117188 -15.484375 3.300781 -15.441406 3.46875 -15.359375 C 3.632812 -15.285156 3.773438 -15.179688 3.890625 -15.046875 C 4.003906 -14.921875 4.097656 -14.773438 4.171875 -14.609375 C 4.242188 -14.441406 4.28125 -14.257812 4.28125 -14.0625 C 4.28125 -13.875 4.242188 -13.691406 4.171875 -13.515625 C 4.097656 -13.335938 4.003906 -13.179688 3.890625 -13.046875 C 3.773438 -12.921875 3.632812 -12.820312 3.46875 -12.75 C 3.300781 -12.675781 3.117188 -12.640625 2.921875 -12.640625 C 2.523438 -12.640625 2.207031 -12.78125 1.96875 -13.0625 C 1.738281 -13.34375 1.625 -13.675781 1.625 -14.0625 Z M 1.625 -14.0625 "/></g></g></g><g fill="#ffffff" fill-opacity="1"><g transform="translate(205.56637, 117.097182)"><g><path d="M 9.6875 -0.890625 C 9.414062 -0.691406 9.148438 -0.519531 8.890625 -0.375 C 8.628906 -0.226562 8.351562 -0.109375 8.0625 -0.015625 C 7.78125 0.078125 7.472656 0.144531 7.140625 0.1875 C 6.816406 0.238281 6.457031 0.265625 6.0625 0.265625 C 5.363281 0.265625 4.707031 0.144531 4.09375 -0.09375 C 3.476562 -0.34375 2.941406 -0.703125 2.484375 -1.171875 C 2.023438 -1.640625 1.660156 -2.203125 1.390625 -2.859375 C 1.128906 -3.523438 1 -4.28125 1 -5.125 C 1 -5.914062 1.125 -6.660156 1.375 -7.359375 C 1.632812 -8.054688 2 -8.664062 2.46875 -9.1875 C 2.9375 -9.707031 3.503906 -10.117188 4.171875 -10.421875 C 4.847656 -10.722656 5.601562 -10.875 6.4375 -10.875 C 7.132812 -10.875 7.734375 -10.789062 8.234375 -10.625 C 8.734375 -10.46875 9.175781 -10.253906 9.5625 -9.984375 L 9.203125 -8.09375 C 8.722656 -8.445312 8.25 -8.710938 7.78125 -8.890625 C 7.3125 -9.066406 6.804688 -9.15625 6.265625 -9.15625 C 5.796875 -9.15625 5.363281 -9.066406 4.96875 -8.890625 C 4.570312 -8.710938 4.226562 -8.457031 3.9375 -8.125 C 3.644531 -7.789062 3.414062 -7.378906 3.25 -6.890625 C 3.082031 -6.398438 3 -5.847656 3 -5.234375 C 3 -4.671875 3.070312 -4.15625 3.21875 -3.6875 C 3.363281 -3.226562 3.578125 -2.832031 3.859375 -2.5 C 4.148438 -2.164062 4.5 -1.90625 4.90625 -1.71875 C 5.3125 -1.539062 5.765625 -1.453125 6.265625 -1.453125 C 6.910156 -1.453125 7.488281 -1.5625 8 -1.78125 C 8.519531 -2 9.007812 -2.316406 9.46875 -2.734375 Z M 9.6875 -0.890625 "/></g></g></g><g fill="#ffffff" fill-opacity="1"><g transform="translate(216.232773, 117.097182)"><g><path d="M 1.515625 0 L 1.515625 -11.8125 C 1.515625 -12.945312 1.503906 -13.9375 1.484375 -14.78125 C 1.472656 -15.625 1.429688 -16.273438 1.359375 -16.734375 L 3.4375 -16.734375 L 3.4375 -6.28125 L 7.6875 -10.671875 L 10.3125 -10.671875 L 5.125 -5.984375 L 10.609375 0 L 8.0625 0 L 3.4375 -5.453125 L 3.4375 0 Z M 1.515625 0 "/></g></g></g><g fill="#ffffff" fill-opacity="1"><g transform="translate(227.05295, 117.097182)"><g><path d="M 2.921875 -5.078125 C 2.941406 -4.460938 3.035156 -3.925781 3.203125 -3.46875 C 3.378906 -3.019531 3.613281 -2.644531 3.90625 -2.34375 C 4.195312 -2.050781 4.539062 -1.828125 4.9375 -1.671875 C 5.34375 -1.523438 5.785156 -1.453125 6.265625 -1.453125 C 6.941406 -1.453125 7.609375 -1.53125 8.265625 -1.6875 C 8.921875 -1.84375 9.566406 -2.117188 10.203125 -2.515625 L 10.40625 -0.78125 C 10.03125 -0.582031 9.664062 -0.414062 9.3125 -0.28125 C 8.96875 -0.15625 8.613281 -0.0507812 8.25 0.03125 C 7.894531 0.113281 7.53125 0.171875 7.15625 0.203125 C 6.789062 0.242188 6.410156 0.265625 6.015625 0.265625 C 5.335938 0.265625 4.695312 0.148438 4.09375 -0.078125 C 3.488281 -0.316406 2.953125 -0.660156 2.484375 -1.109375 C 2.023438 -1.566406 1.660156 -2.132812 1.390625 -2.8125 C 1.128906 -3.5 1 -4.285156 1 -5.171875 C 1 -6.035156 1.113281 -6.816406 1.34375 -7.515625 C 1.570312 -8.222656 1.90625 -8.820312 2.34375 -9.3125 C 2.78125 -9.8125 3.304688 -10.195312 3.921875 -10.46875 C 4.546875 -10.738281 5.242188 -10.875 6.015625 -10.875 C 6.878906 -10.875 7.585938 -10.722656 8.140625 -10.421875 C 8.703125 -10.128906 9.144531 -9.742188 9.46875 -9.265625 C 9.800781 -8.796875 10.03125 -8.257812 10.15625 -7.65625 C 10.28125 -7.0625 10.34375 -6.472656 10.34375 -5.890625 L 10.34375 -5.078125 Z M 5.859375 -9.296875 C 5.085938 -9.296875 4.457031 -9.070312 3.96875 -8.625 C 3.476562 -8.1875 3.15625 -7.488281 3 -6.53125 L 8.453125 -6.53125 C 8.453125 -6.988281 8.382812 -7.390625 8.25 -7.734375 C 8.125 -8.078125 7.945312 -8.363281 7.71875 -8.59375 C 7.5 -8.832031 7.226562 -9.007812 6.90625 -9.125 C 6.582031 -9.238281 6.234375 -9.296875 5.859375 -9.296875 Z M 5.859375 -9.296875 "/></g></g></g><g fill="#ffffff" fill-opacity="1"><g transform="translate(238.502208, 117.097182)"><g><path d="M 10.765625 -5.53125 C 10.765625 -4.207031 10.835938 -3.097656 10.984375 -2.203125 C 11.140625 -1.316406 11.328125 -0.582031 11.546875 0 L 9.6875 0 C 9.59375 -0.175781 9.492188 -0.445312 9.390625 -0.8125 C 9.285156 -1.175781 9.191406 -1.550781 9.109375 -1.9375 C 8.597656 -1.21875 8.023438 -0.671875 7.390625 -0.296875 C 6.753906 0.078125 6.050781 0.265625 5.28125 0.265625 C 4.644531 0.265625 4.066406 0.144531 3.546875 -0.09375 C 3.035156 -0.34375 2.597656 -0.6875 2.234375 -1.125 C 1.867188 -1.5625 1.585938 -2.09375 1.390625 -2.71875 C 1.203125 -3.34375 1.109375 -4.039062 1.109375 -4.8125 C 1.109375 -5.726562 1.234375 -6.5625 1.484375 -7.3125 C 1.742188 -8.0625 2.09375 -8.703125 2.53125 -9.234375 C 2.976562 -9.765625 3.503906 -10.171875 4.109375 -10.453125 C 4.710938 -10.734375 5.363281 -10.875 6.0625 -10.875 C 6.507812 -10.875 6.984375 -10.78125 7.484375 -10.59375 C 7.984375 -10.414062 8.441406 -10.210938 8.859375 -9.984375 L 8.859375 -12.90625 C 8.859375 -14.601562 8.769531 -15.878906 8.59375 -16.734375 L 10.765625 -16.734375 Z M 8.859375 -8.328125 C 8.585938 -8.460938 8.34375 -8.578125 8.125 -8.671875 C 7.90625 -8.773438 7.6875 -8.859375 7.46875 -8.921875 C 7.25 -8.984375 7.023438 -9.03125 6.796875 -9.0625 C 6.566406 -9.09375 6.320312 -9.109375 6.0625 -9.109375 C 5.675781 -9.109375 5.296875 -9.015625 4.921875 -8.828125 C 4.554688 -8.648438 4.234375 -8.390625 3.953125 -8.046875 C 3.671875 -7.703125 3.445312 -7.28125 3.28125 -6.78125 C 3.113281 -6.289062 3.03125 -5.738281 3.03125 -5.125 C 3.03125 -3.894531 3.238281 -2.96875 3.65625 -2.34375 C 4.070312 -1.71875 4.738281 -1.40625 5.65625 -1.40625 C 5.96875 -1.40625 6.28125 -1.484375 6.59375 -1.640625 C 6.914062 -1.804688 7.21875 -2.019531 7.5 -2.28125 C 7.78125 -2.539062 8.035156 -2.832031 8.265625 -3.15625 C 8.503906 -3.488281 8.703125 -3.832031 8.859375 -4.1875 Z M 8.859375 -8.328125 "/></g></g></g><g fill="#ffffff" fill-opacity="1"><g transform="translate(250.944014, 117.097182)"><g/></g></g><g fill="#ffffff" fill-opacity="1"><g transform="translate(257.276754, 117.097182)"><g><path d="M 9.9375 -3.859375 C 9.9375 -3.109375 10.007812 -2.421875 10.15625 -1.796875 C 10.300781 -1.179688 10.488281 -0.582031 10.71875 0 L 8.859375 0 C 8.773438 -0.164062 8.679688 -0.390625 8.578125 -0.671875 C 8.484375 -0.960938 8.398438 -1.28125 8.328125 -1.625 C 7.703125 -0.957031 7.050781 -0.472656 6.375 -0.171875 C 5.707031 0.117188 5.046875 0.265625 4.390625 0.265625 C 3.898438 0.265625 3.445312 0.1875 3.03125 0.03125 C 2.613281 -0.125 2.253906 -0.335938 1.953125 -0.609375 C 1.660156 -0.878906 1.425781 -1.191406 1.25 -1.546875 C 1.082031 -1.898438 1 -2.273438 1 -2.671875 C 1 -3.066406 1.0625 -3.46875 1.1875 -3.875 C 1.320312 -4.28125 1.546875 -4.65625 1.859375 -5 C 2.179688 -5.351562 2.609375 -5.648438 3.140625 -5.890625 C 3.679688 -6.140625 4.359375 -6.304688 5.171875 -6.390625 C 5.347656 -6.410156 5.578125 -6.429688 5.859375 -6.453125 C 6.140625 -6.472656 6.421875 -6.5 6.703125 -6.53125 C 6.984375 -6.5625 7.242188 -6.582031 7.484375 -6.59375 C 7.722656 -6.613281 7.898438 -6.628906 8.015625 -6.640625 L 8.015625 -7.421875 C 8.015625 -8.054688 7.789062 -8.507812 7.34375 -8.78125 C 6.894531 -9.0625 6.28125 -9.203125 5.5 -9.203125 C 4.9375 -9.203125 4.378906 -9.09375 3.828125 -8.875 C 3.273438 -8.65625 2.691406 -8.328125 2.078125 -7.890625 C 2.085938 -8.003906 2.09375 -8.15625 2.09375 -8.34375 C 2.101562 -8.53125 2.113281 -8.722656 2.125 -8.921875 C 2.132812 -9.117188 2.144531 -9.3125 2.15625 -9.5 C 2.164062 -9.6875 2.179688 -9.832031 2.203125 -9.9375 C 2.460938 -10.050781 2.726562 -10.164062 3 -10.28125 C 3.28125 -10.394531 3.570312 -10.492188 3.875 -10.578125 C 4.175781 -10.671875 4.5 -10.742188 4.84375 -10.796875 C 5.195312 -10.847656 5.566406 -10.875 5.953125 -10.875 C 6.554688 -10.875 7.101562 -10.800781 7.59375 -10.65625 C 8.082031 -10.507812 8.5 -10.300781 8.84375 -10.03125 C 9.195312 -9.769531 9.46875 -9.460938 9.65625 -9.109375 C 9.84375 -8.753906 9.9375 -8.363281 9.9375 -7.9375 Z M 8.015625 -5.171875 C 7.878906 -5.171875 7.691406 -5.160156 7.453125 -5.140625 C 7.210938 -5.117188 6.957031 -5.09375 6.6875 -5.0625 C 6.425781 -5.03125 6.164062 -5 5.90625 -4.96875 C 5.65625 -4.945312 5.445312 -4.925781 5.28125 -4.90625 C 4.832031 -4.851562 4.453125 -4.765625 4.140625 -4.640625 C 3.835938 -4.523438 3.59375 -4.378906 3.40625 -4.203125 C 3.21875 -4.023438 3.078125 -3.828125 2.984375 -3.609375 C 2.898438 -3.390625 2.859375 -3.160156 2.859375 -2.921875 C 2.859375 -2.441406 3.019531 -2.078125 3.34375 -1.828125 C 3.675781 -1.578125 4.128906 -1.453125 4.703125 -1.453125 C 4.972656 -1.453125 5.238281 -1.472656 5.5 -1.515625 C 5.757812 -1.566406 6.019531 -1.660156 6.28125 -1.796875 C 6.550781 -1.929688 6.828125 -2.125 7.109375 -2.375 C 7.390625 -2.632812 7.691406 -2.972656 8.015625 -3.390625 Z M 8.015625 -5.171875 "/></g></g></g><g fill="#ffffff" fill-opacity="1"><g transform="translate(268.991623, 117.097182)"><g><path d="M 9.6875 -0.890625 C 9.414062 -0.691406 9.148438 -0.519531 8.890625 -0.375 C 8.628906 -0.226562 8.351562 -0.109375 8.0625 -0.015625 C 7.78125 0.078125 7.472656 0.144531 7.140625 0.1875 C 6.816406 0.238281 6.457031 0.265625 6.0625 0.265625 C 5.363281 0.265625 4.707031 0.144531 4.09375 -0.09375 C 3.476562 -0.34375 2.941406 -0.703125 2.484375 -1.171875 C 2.023438 -1.640625 1.660156 -2.203125 1.390625 -2.859375 C 1.128906 -3.523438 1 -4.28125 1 -5.125 C 1 -5.914062 1.125 -6.660156 1.375 -7.359375 C 1.632812 -8.054688 2 -8.664062 2.46875 -9.1875 C 2.9375 -9.707031 3.503906 -10.117188 4.171875 -10.421875 C 4.847656 -10.722656 5.601562 -10.875 6.4375 -10.875 C 7.132812 -10.875 7.734375 -10.789062 8.234375 -10.625 C 8.734375 -10.46875 9.175781 -10.253906 9.5625 -9.984375 L 9.203125 -8.09375 C 8.722656 -8.445312 8.25 -8.710938 7.78125 -8.890625 C 7.3125 -9.066406 6.804688 -9.15625 6.265625 -9.15625 C 5.796875 -9.15625 5.363281 -9.066406 4.96875 -8.890625 C 4.570312 -8.710938 4.226562 -8.457031 3.9375 -8.125 C 3.644531 -7.789062 3.414062 -7.378906 3.25 -6.890625 C 3.082031 -6.398438 3 -5.847656 3 -5.234375 C 3 -4.671875 3.070312 -4.15625 3.21875 -3.6875 C 3.363281 -3.226562 3.578125 -2.832031 3.859375 -2.5 C 4.148438 -2.164062 4.5 -1.90625 4.90625 -1.71875 C 5.3125 -1.539062 5.765625 -1.453125 6.265625 -1.453125 C 6.910156 -1.453125 7.488281 -1.5625 8 -1.78125 C 8.519531 -2 9.007812 -2.316406 9.46875 -2.734375 Z M 9.6875 -0.890625 "/></g></g></g><g fill="#ffffff" fill-opacity="1"><g transform="translate(279.658026, 117.097182)"><g><path d="M 9.6875 -0.890625 C 9.414062 -0.691406 9.148438 -0.519531 8.890625 -0.375 C 8.628906 -0.226562 8.351562 -0.109375 8.0625 -0.015625 C 7.78125 0.078125 7.472656 0.144531 7.140625 0.1875 C 6.816406 0.238281 6.457031 0.265625 6.0625 0.265625 C 5.363281 0.265625 4.707031 0.144531 4.09375 -0.09375 C 3.476562 -0.34375 2.941406 -0.703125 2.484375 -1.171875 C 2.023438 -1.640625 1.660156 -2.203125 1.390625 -2.859375 C 1.128906 -3.523438 1 -4.28125 1 -5.125 C 1 -5.914062 1.125 -6.660156 1.375 -7.359375 C 1.632812 -8.054688 2 -8.664062 2.46875 -9.1875 C 2.9375 -9.707031 3.503906 -10.117188 4.171875 -10.421875 C 4.847656 -10.722656 5.601562 -10.875 6.4375 -10.875 C 7.132812 -10.875 7.734375 -10.789062 8.234375 -10.625 C 8.734375 -10.46875 9.175781 -10.253906 9.5625 -9.984375 L 9.203125 -8.09375 C 8.722656 -8.445312 8.25 -8.710938 7.78125 -8.890625 C 7.3125 -9.066406 6.804688 -9.15625 6.265625 -9.15625 C 5.796875 -9.15625 5.363281 -9.066406 4.96875 -8.890625 C 4.570312 -8.710938 4.226562 -8.457031 3.9375 -8.125 C 3.644531 -7.789062 3.414062 -7.378906 3.25 -6.890625 C 3.082031 -6.398438 3 -5.847656 3 -5.234375 C 3 -4.671875 3.070312 -4.15625 3.21875 -3.6875 C 3.363281 -3.226562 3.578125 -2.832031 3.859375 -2.5 C 4.148438 -2.164062 4.5 -1.90625 4.90625 -1.71875 C 5.3125 -1.539062 5.765625 -1.453125 6.265625 -1.453125 C 6.910156 -1.453125 7.488281 -1.5625 8 -1.78125 C 8.519531 -2 9.007812 -2.316406 9.46875 -2.734375 Z M 9.6875 -0.890625 "/></g></g></g><g fill="#ffffff" fill-opacity="1"><g transform="translate(290.324429, 117.097182)"><g><path d="M 2.921875 -5.078125 C 2.941406 -4.460938 3.035156 -3.925781 3.203125 -3.46875 C 3.378906 -3.019531 3.613281 -2.644531 3.90625 -2.34375 C 4.195312 -2.050781 4.539062 -1.828125 4.9375 -1.671875 C 5.34375 -1.523438 5.785156 -1.453125 6.265625 -1.453125 C 6.941406 -1.453125 7.609375 -1.53125 8.265625 -1.6875 C 8.921875 -1.84375 9.566406 -2.117188 10.203125 -2.515625 L 10.40625 -0.78125 C 10.03125 -0.582031 9.664062 -0.414062 9.3125 -0.28125 C 8.96875 -0.15625 8.613281 -0.0507812 8.25 0.03125 C 7.894531 0.113281 7.53125 0.171875 7.15625 0.203125 C 6.789062 0.242188 6.410156 0.265625 6.015625 0.265625 C 5.335938 0.265625 4.695312 0.148438 4.09375 -0.078125 C 3.488281 -0.316406 2.953125 -0.660156 2.484375 -1.109375 C 2.023438 -1.566406 1.660156 -2.132812 1.390625 -2.8125 C 1.128906 -3.5 1 -4.285156 1 -5.171875 C 1 -6.035156 1.113281 -6.816406 1.34375 -7.515625 C 1.570312 -8.222656 1.90625 -8.820312 2.34375 -9.3125 C 2.78125 -9.8125 3.304688 -10.195312 3.921875 -10.46875 C 4.546875 -10.738281 5.242188 -10.875 6.015625 -10.875 C 6.878906 -10.875 7.585938 -10.722656 8.140625 -10.421875 C 8.703125 -10.128906 9.144531 -9.742188 9.46875 -9.265625 C 9.800781 -8.796875 10.03125 -8.257812 10.15625 -7.65625 C 10.28125 -7.0625 10.34375 -6.472656 10.34375 -5.890625 L 10.34375 -5.078125 Z M 5.859375 -9.296875 C 5.085938 -9.296875 4.457031 -9.070312 3.96875 -8.625 C 3.476562 -8.1875 3.15625 -7.488281 3 -6.53125 L 8.453125 -6.53125 C 8.453125 -6.988281 8.382812 -7.390625 8.25 -7.734375 C 8.125 -8.078125 7.945312 -8.363281 7.71875 -8.59375 C 7.5 -8.832031 7.226562 -9.007812 6.90625 -9.125 C 6.582031 -9.238281 6.234375 -9.296875 5.859375 -9.296875 Z M 5.859375 -9.296875 "/></g></g></g><g fill="#ffffff" fill-opacity="1"><g transform="translate(301.773686, 117.097182)"><g><path d="M 8.359375 -8.203125 C 8.179688 -8.304688 7.984375 -8.414062 7.765625 -8.53125 C 7.546875 -8.65625 7.304688 -8.765625 7.046875 -8.859375 C 6.785156 -8.953125 6.507812 -9.03125 6.21875 -9.09375 C 5.925781 -9.164062 5.613281 -9.203125 5.28125 -9.203125 C 4.894531 -9.203125 4.570312 -9.160156 4.3125 -9.078125 C 4.050781 -8.992188 3.835938 -8.882812 3.671875 -8.75 C 3.515625 -8.625 3.40625 -8.476562 3.34375 -8.3125 C 3.28125 -8.144531 3.25 -7.984375 3.25 -7.828125 C 3.25 -7.640625 3.273438 -7.476562 3.328125 -7.34375 C 3.378906 -7.207031 3.492188 -7.078125 3.671875 -6.953125 C 3.847656 -6.835938 4.097656 -6.722656 4.421875 -6.609375 C 4.753906 -6.503906 5.195312 -6.394531 5.75 -6.28125 C 6.21875 -6.164062 6.660156 -6.023438 7.078125 -5.859375 C 7.492188 -5.703125 7.859375 -5.492188 8.171875 -5.234375 C 8.492188 -4.984375 8.742188 -4.679688 8.921875 -4.328125 C 9.109375 -3.972656 9.203125 -3.554688 9.203125 -3.078125 C 9.203125 -2.597656 9.097656 -2.15625 8.890625 -1.75 C 8.679688 -1.34375 8.394531 -0.988281 8.03125 -0.6875 C 7.664062 -0.394531 7.238281 -0.164062 6.75 0 C 6.257812 0.175781 5.734375 0.265625 5.171875 0.265625 C 4.753906 0.265625 4.347656 0.226562 3.953125 0.15625 C 3.554688 0.09375 3.1875 0.0078125 2.84375 -0.09375 C 2.5 -0.195312 2.179688 -0.320312 1.890625 -0.46875 C 1.597656 -0.613281 1.347656 -0.765625 1.140625 -0.921875 L 1.671875 -2.8125 C 1.910156 -2.601562 2.175781 -2.410156 2.46875 -2.234375 C 2.757812 -2.066406 3.0625 -1.921875 3.375 -1.796875 C 3.695312 -1.679688 4.015625 -1.585938 4.328125 -1.515625 C 4.648438 -1.441406 4.953125 -1.40625 5.234375 -1.40625 C 5.535156 -1.40625 5.8125 -1.445312 6.0625 -1.53125 C 6.320312 -1.613281 6.539062 -1.71875 6.71875 -1.84375 C 6.90625 -1.976562 7.050781 -2.128906 7.15625 -2.296875 C 7.257812 -2.460938 7.3125 -2.632812 7.3125 -2.8125 C 7.3125 -3.007812 7.269531 -3.195312 7.1875 -3.375 C 7.113281 -3.550781 6.96875 -3.710938 6.75 -3.859375 C 6.539062 -4.015625 6.25 -4.164062 5.875 -4.3125 C 5.507812 -4.46875 5.035156 -4.613281 4.453125 -4.75 C 3.816406 -4.90625 3.296875 -5.085938 2.890625 -5.296875 C 2.492188 -5.503906 2.179688 -5.734375 1.953125 -5.984375 C 1.722656 -6.242188 1.566406 -6.519531 1.484375 -6.8125 C 1.398438 -7.113281 1.359375 -7.425781 1.359375 -7.75 C 1.359375 -7.976562 1.414062 -8.269531 1.53125 -8.625 C 1.65625 -8.988281 1.867188 -9.335938 2.171875 -9.671875 C 2.484375 -10.003906 2.898438 -10.285156 3.421875 -10.515625 C 3.941406 -10.753906 4.597656 -10.875 5.390625 -10.875 C 6.148438 -10.875 6.804688 -10.78125 7.359375 -10.59375 C 7.910156 -10.414062 8.363281 -10.234375 8.71875 -10.046875 Z M 8.359375 -8.203125 "/></g></g></g><g fill="#ffffff" fill-opacity="1"><g transform="translate(311.866927, 117.097182)"><g><path d="M 8.359375 -8.203125 C 8.179688 -8.304688 7.984375 -8.414062 7.765625 -8.53125 C 7.546875 -8.65625 7.304688 -8.765625 7.046875 -8.859375 C 6.785156 -8.953125 6.507812 -9.03125 6.21875 -9.09375 C 5.925781 -9.164062 5.613281 -9.203125 5.28125 -9.203125 C 4.894531 -9.203125 4.570312 -9.160156 4.3125 -9.078125 C 4.050781 -8.992188 3.835938 -8.882812 3.671875 -8.75 C 3.515625 -8.625 3.40625 -8.476562 3.34375 -8.3125 C 3.28125 -8.144531 3.25 -7.984375 3.25 -7.828125 C 3.25 -7.640625 3.273438 -7.476562 3.328125 -7.34375 C 3.378906 -7.207031 3.492188 -7.078125 3.671875 -6.953125 C 3.847656 -6.835938 4.097656 -6.722656 4.421875 -6.609375 C 4.753906 -6.503906 5.195312 -6.394531 5.75 -6.28125 C 6.21875 -6.164062 6.660156 -6.023438 7.078125 -5.859375 C 7.492188 -5.703125 7.859375 -5.492188 8.171875 -5.234375 C 8.492188 -4.984375 8.742188 -4.679688 8.921875 -4.328125 C 9.109375 -3.972656 9.203125 -3.554688 9.203125 -3.078125 C 9.203125 -2.597656 9.097656 -2.15625 8.890625 -1.75 C 8.679688 -1.34375 8.394531 -0.988281 8.03125 -0.6875 C 7.664062 -0.394531 7.238281 -0.164062 6.75 0 C 6.257812 0.175781 5.734375 0.265625 5.171875 0.265625 C 4.753906 0.265625 4.347656 0.226562 3.953125 0.15625 C 3.554688 0.09375 3.1875 0.0078125 2.84375 -0.09375 C 2.5 -0.195312 2.179688 -0.320312 1.890625 -0.46875 C 1.597656 -0.613281 1.347656 -0.765625 1.140625 -0.921875 L 1.671875 -2.8125 C 1.910156 -2.601562 2.175781 -2.410156 2.46875 -2.234375 C 2.757812 -2.066406 3.0625 -1.921875 3.375 -1.796875 C 3.695312 -1.679688 4.015625 -1.585938 4.328125 -1.515625 C 4.648438 -1.441406 4.953125 -1.40625 5.234375 -1.40625 C 5.535156 -1.40625 5.8125 -1.445312 6.0625 -1.53125 C 6.320312 -1.613281 6.539062 -1.71875 6.71875 -1.84375 C 6.90625 -1.976562 7.050781 -2.128906 7.15625 -2.296875 C 7.257812 -2.460938 7.3125 -2.632812 7.3125 -2.8125 C 7.3125 -3.007812 7.269531 -3.195312 7.1875 -3.375 C 7.113281 -3.550781 6.96875 -3.710938 6.75 -3.859375 C 6.539062 -4.015625 6.25 -4.164062 5.875 -4.3125 C 5.507812 -4.46875 5.035156 -4.613281 4.453125 -4.75 C 3.816406 -4.90625 3.296875 -5.085938 2.890625 -5.296875 C 2.492188 -5.503906 2.179688 -5.734375 1.953125 -5.984375 C 1.722656 -6.242188 1.566406 -6.519531 1.484375 -6.8125 C 1.398438 -7.113281 1.359375 -7.425781 1.359375 -7.75 C 1.359375 -7.976562 1.414062 -8.269531 1.53125 -8.625 C 1.65625 -8.988281 1.867188 -9.335938 2.171875 -9.671875 C 2.484375 -10.003906 2.898438 -10.285156 3.421875 -10.515625 C 3.941406 -10.753906 4.597656 -10.875 5.390625 -10.875 C 6.148438 -10.875 6.804688 -10.78125 7.359375 -10.59375 C 7.910156 -10.414062 8.363281 -10.234375 8.71875 -10.046875 Z M 8.359375 -8.203125 "/></g></g></g><g fill="#ffffff" fill-opacity="1"><g transform="translate(321.960168, 117.097182)"><g><path d="M 1 -5.28125 C 1 -6.1875 1.128906 -6.984375 1.390625 -7.671875 C 1.660156 -8.367188 2.023438 -8.957031 2.484375 -9.4375 C 2.953125 -9.914062 3.492188 -10.273438 4.109375 -10.515625 C 4.722656 -10.753906 5.375 -10.875 6.0625 -10.875 C 6.78125 -10.875 7.4375 -10.753906 8.03125 -10.515625 C 8.632812 -10.273438 9.148438 -9.914062 9.578125 -9.4375 C 10.003906 -8.957031 10.335938 -8.367188 10.578125 -7.671875 C 10.816406 -6.984375 10.9375 -6.1875 10.9375 -5.28125 C 10.9375 -4.382812 10.800781 -3.585938 10.53125 -2.890625 C 10.257812 -2.203125 9.890625 -1.625 9.421875 -1.15625 C 8.960938 -0.695312 8.425781 -0.34375 7.8125 -0.09375 C 7.195312 0.144531 6.546875 0.265625 5.859375 0.265625 C 5.140625 0.265625 4.484375 0.144531 3.890625 -0.09375 C 3.296875 -0.34375 2.78125 -0.695312 2.34375 -1.15625 C 1.914062 -1.625 1.582031 -2.203125 1.34375 -2.890625 C 1.113281 -3.585938 1 -4.382812 1 -5.28125 Z M 2.921875 -5.28125 C 2.921875 -4.664062 2.992188 -4.117188 3.140625 -3.640625 C 3.296875 -3.160156 3.503906 -2.753906 3.765625 -2.421875 C 4.035156 -2.097656 4.351562 -1.847656 4.71875 -1.671875 C 5.09375 -1.492188 5.503906 -1.40625 5.953125 -1.40625 C 6.378906 -1.40625 6.773438 -1.492188 7.140625 -1.671875 C 7.503906 -1.847656 7.820312 -2.097656 8.09375 -2.421875 C 8.375 -2.753906 8.59375 -3.160156 8.75 -3.640625 C 8.90625 -4.117188 8.984375 -4.664062 8.984375 -5.28125 C 8.984375 -5.894531 8.910156 -6.441406 8.765625 -6.921875 C 8.617188 -7.410156 8.410156 -7.820312 8.140625 -8.15625 C 7.878906 -8.5 7.5625 -8.757812 7.1875 -8.9375 C 6.8125 -9.113281 6.398438 -9.203125 5.953125 -9.203125 C 5.535156 -9.203125 5.140625 -9.113281 4.765625 -8.9375 C 4.390625 -8.757812 4.066406 -8.5 3.796875 -8.15625 C 3.523438 -7.820312 3.3125 -7.410156 3.15625 -6.921875 C 3 -6.441406 2.921875 -5.894531 2.921875 -5.28125 Z M 2.921875 -5.28125 "/></g></g></g><g fill="#ffffff" fill-opacity="1"><g transform="translate(333.884731, 117.097182)"><g><path d="M 1.625 0 L 1.625 -6.4375 C 1.625 -7.457031 1.5625 -8.328125 1.4375 -9.046875 C 1.320312 -9.773438 1.210938 -10.316406 1.109375 -10.671875 L 3 -10.671875 C 3.03125 -10.554688 3.0625 -10.410156 3.09375 -10.234375 C 3.132812 -10.054688 3.171875 -9.867188 3.203125 -9.671875 C 3.242188 -9.484375 3.28125 -9.296875 3.3125 -9.109375 C 3.351562 -8.921875 3.378906 -8.757812 3.390625 -8.625 C 3.648438 -8.988281 3.925781 -9.3125 4.21875 -9.59375 C 4.519531 -9.875 4.816406 -10.109375 5.109375 -10.296875 C 5.410156 -10.492188 5.707031 -10.640625 6 -10.734375 C 6.289062 -10.828125 6.550781 -10.875 6.78125 -10.875 C 7.226562 -10.875 7.601562 -10.773438 7.90625 -10.578125 C 8.21875 -10.390625 8.46875 -10.132812 8.65625 -9.8125 C 8.851562 -9.488281 8.992188 -9.113281 9.078125 -8.6875 C 9.160156 -8.269531 9.203125 -7.832031 9.203125 -7.375 L 7.53125 -7 C 7.53125 -7.257812 7.503906 -7.507812 7.453125 -7.75 C 7.410156 -8 7.34375 -8.210938 7.25 -8.390625 C 7.15625 -8.578125 7.03125 -8.722656 6.875 -8.828125 C 6.71875 -8.929688 6.535156 -8.984375 6.328125 -8.984375 C 6.109375 -8.984375 5.863281 -8.894531 5.59375 -8.71875 C 5.320312 -8.550781 5.050781 -8.332031 4.78125 -8.0625 C 4.519531 -7.789062 4.28125 -7.476562 4.0625 -7.125 C 3.84375 -6.769531 3.675781 -6.414062 3.5625 -6.0625 L 3.5625 0 Z M 1.625 0 "/></g></g></g><g fill="#ffffff" fill-opacity="1"><g transform="translate(343.181136, 117.097182)"><g><path d="M 3.921875 -4.96875 C 3.921875 -4.632812 3.921875 -4.238281 3.921875 -3.78125 C 3.929688 -3.320312 3.945312 -2.859375 3.96875 -2.390625 C 3.988281 -1.921875 4.007812 -1.472656 4.03125 -1.046875 C 4.050781 -0.628906 4.082031 -0.28125 4.125 0 L 1.984375 0 L 1.984375 -5.53125 C 1.984375 -6.050781 1.976562 -6.554688 1.96875 -7.046875 C 1.96875 -7.546875 1.960938 -8.015625 1.953125 -8.453125 C 1.941406 -8.898438 1.925781 -9.3125 1.90625 -9.6875 C 1.894531 -10.0625 1.867188 -10.390625 1.828125 -10.671875 L 3.921875 -10.671875 Z M 1.625 -14.0625 C 1.625 -14.457031 1.738281 -14.789062 1.96875 -15.0625 C 2.207031 -15.34375 2.523438 -15.484375 2.921875 -15.484375 C 3.117188 -15.484375 3.300781 -15.441406 3.46875 -15.359375 C 3.632812 -15.285156 3.773438 -15.179688 3.890625 -15.046875 C 4.003906 -14.921875 4.097656 -14.773438 4.171875 -14.609375 C 4.242188 -14.441406 4.28125 -14.257812 4.28125 -14.0625 C 4.28125 -13.875 4.242188 -13.691406 4.171875 -13.515625 C 4.097656 -13.335938 4.003906 -13.179688 3.890625 -13.046875 C 3.773438 -12.921875 3.632812 -12.820312 3.46875 -12.75 C 3.300781 -12.675781 3.117188 -12.640625 2.921875 -12.640625 C 2.523438 -12.640625 2.207031 -12.78125 1.96875 -13.0625 C 1.738281 -13.34375 1.625 -13.675781 1.625 -14.0625 Z M 1.625 -14.0625 "/></g></g></g><g fill="#ffffff" fill-opacity="1"><g transform="translate(349.094489, 117.097182)"><g><path d="M 2.921875 -5.078125 C 2.941406 -4.460938 3.035156 -3.925781 3.203125 -3.46875 C 3.378906 -3.019531 3.613281 -2.644531 3.90625 -2.34375 C 4.195312 -2.050781 4.539062 -1.828125 4.9375 -1.671875 C 5.34375 -1.523438 5.785156 -1.453125 6.265625 -1.453125 C 6.941406 -1.453125 7.609375 -1.53125 8.265625 -1.6875 C 8.921875 -1.84375 9.566406 -2.117188 10.203125 -2.515625 L 10.40625 -0.78125 C 10.03125 -0.582031 9.664062 -0.414062 9.3125 -0.28125 C 8.96875 -0.15625 8.613281 -0.0507812 8.25 0.03125 C 7.894531 0.113281 7.53125 0.171875 7.15625 0.203125 C 6.789062 0.242188 6.410156 0.265625 6.015625 0.265625 C 5.335938 0.265625 4.695312 0.148438 4.09375 -0.078125 C 3.488281 -0.316406 2.953125 -0.660156 2.484375 -1.109375 C 2.023438 -1.566406 1.660156 -2.132812 1.390625 -2.8125 C 1.128906 -3.5 1 -4.285156 1 -5.171875 C 1 -6.035156 1.113281 -6.816406 1.34375 -7.515625 C 1.570312 -8.222656 1.90625 -8.820312 2.34375 -9.3125 C 2.78125 -9.8125 3.304688 -10.195312 3.921875 -10.46875 C 4.546875 -10.738281 5.242188 -10.875 6.015625 -10.875 C 6.878906 -10.875 7.585938 -10.722656 8.140625 -10.421875 C 8.703125 -10.128906 9.144531 -9.742188 9.46875 -9.265625 C 9.800781 -8.796875 10.03125 -8.257812 10.15625 -7.65625 C 10.28125 -7.0625 10.34375 -6.472656 10.34375 -5.890625 L 10.34375 -5.078125 Z M 5.859375 -9.296875 C 5.085938 -9.296875 4.457031 -9.070312 3.96875 -8.625 C 3.476562 -8.1875 3.15625 -7.488281 3 -6.53125 L 8.453125 -6.53125 C 8.453125 -6.988281 8.382812 -7.390625 8.25 -7.734375 C 8.125 -8.078125 7.945312 -8.363281 7.71875 -8.59375 C 7.5 -8.832031 7.226562 -9.007812 6.90625 -9.125 C 6.582031 -9.238281 6.234375 -9.296875 5.859375 -9.296875 Z M 5.859375 -9.296875 "/></g></g></g><g fill="#ffffff" fill-opacity="1"><g transform="translate(360.543747, 117.097182)"><g><path d="M 8.359375 -8.203125 C 8.179688 -8.304688 7.984375 -8.414062 7.765625 -8.53125 C 7.546875 -8.65625 7.304688 -8.765625 7.046875 -8.859375 C 6.785156 -8.953125 6.507812 -9.03125 6.21875 -9.09375 C 5.925781 -9.164062 5.613281 -9.203125 5.28125 -9.203125 C 4.894531 -9.203125 4.570312 -9.160156 4.3125 -9.078125 C 4.050781 -8.992188 3.835938 -8.882812 3.671875 -8.75 C 3.515625 -8.625 3.40625 -8.476562 3.34375 -8.3125 C 3.28125 -8.144531 3.25 -7.984375 3.25 -7.828125 C 3.25 -7.640625 3.273438 -7.476562 3.328125 -7.34375 C 3.378906 -7.207031 3.492188 -7.078125 3.671875 -6.953125 C 3.847656 -6.835938 4.097656 -6.722656 4.421875 -6.609375 C 4.753906 -6.503906 5.195312 -6.394531 5.75 -6.28125 C 6.21875 -6.164062 6.660156 -6.023438 7.078125 -5.859375 C 7.492188 -5.703125 7.859375 -5.492188 8.171875 -5.234375 C 8.492188 -4.984375 8.742188 -4.679688 8.921875 -4.328125 C 9.109375 -3.972656 9.203125 -3.554688 9.203125 -3.078125 C 9.203125 -2.597656 9.097656 -2.15625 8.890625 -1.75 C 8.679688 -1.34375 8.394531 -0.988281 8.03125 -0.6875 C 7.664062 -0.394531 7.238281 -0.164062 6.75 0 C 6.257812 0.175781 5.734375 0.265625 5.171875 0.265625 C 4.753906 0.265625 4.347656 0.226562 3.953125 0.15625 C 3.554688 0.09375 3.1875 0.0078125 2.84375 -0.09375 C 2.5 -0.195312 2.179688 -0.320312 1.890625 -0.46875 C 1.597656 -0.613281 1.347656 -0.765625 1.140625 -0.921875 L 1.671875 -2.8125 C 1.910156 -2.601562 2.175781 -2.410156 2.46875 -2.234375 C 2.757812 -2.066406 3.0625 -1.921875 3.375 -1.796875 C 3.695312 -1.679688 4.015625 -1.585938 4.328125 -1.515625 C 4.648438 -1.441406 4.953125 -1.40625 5.234375 -1.40625 C 5.535156 -1.40625 5.8125 -1.445312 6.0625 -1.53125 C 6.320312 -1.613281 6.539062 -1.71875 6.71875 -1.84375 C 6.90625 -1.976562 7.050781 -2.128906 7.15625 -2.296875 C 7.257812 -2.460938 7.3125 -2.632812 7.3125 -2.8125 C 7.3125 -3.007812 7.269531 -3.195312 7.1875 -3.375 C 7.113281 -3.550781 6.96875 -3.710938 6.75 -3.859375 C 6.539062 -4.015625 6.25 -4.164062 5.875 -4.3125 C 5.507812 -4.46875 5.035156 -4.613281 4.453125 -4.75 C 3.816406 -4.90625 3.296875 -5.085938 2.890625 -5.296875 C 2.492188 -5.503906 2.179688 -5.734375 1.953125 -5.984375 C 1.722656 -6.242188 1.566406 -6.519531 1.484375 -6.8125 C 1.398438 -7.113281 1.359375 -7.425781 1.359375 -7.75 C 1.359375 -7.976562 1.414062 -8.269531 1.53125 -8.625 C 1.65625 -8.988281 1.867188 -9.335938 2.171875 -9.671875 C 2.484375 -10.003906 2.898438 -10.285156 3.421875 -10.515625 C 3.941406 -10.753906 4.597656 -10.875 5.390625 -10.875 C 6.148438 -10.875 6.804688 -10.78125 7.359375 -10.59375 C 7.910156 -10.414062 8.363281 -10.234375 8.71875 -10.046875 Z M 8.359375 -8.203125 "/></g></g></g><g fill="#ffffff" fill-opacity="1"><g transform="translate(370.635965, 117.097182)"><g/></g></g><g clip-path="url(#5732673465)"><path fill="#000000" d="M 94.371094 138.925781 C 94.371094 139.167969 94.308594 139.410156 94.1875 139.652344 C 94.0625 139.894531 93.878906 140.132812 93.632812 140.371094 C 93.386719 140.609375 93.078125 140.84375 92.710938 141.074219 C 92.34375 141.308594 91.921875 141.535156 91.4375 141.757812 C 90.953125 141.984375 90.414062 142.203125 89.820312 142.414062 C 89.226562 142.628906 88.578125 142.835938 87.875 143.039062 C 87.175781 143.242188 86.421875 143.433594 85.621094 143.621094 C 84.820312 143.808594 83.976562 143.988281 83.082031 144.160156 C 82.191406 144.332031 81.253906 144.496094 80.28125 144.648438 C 79.304688 144.800781 78.289062 144.945312 77.242188 145.082031 C 76.191406 145.214844 75.109375 145.339844 73.996094 145.453125 C 72.882812 145.570312 71.742188 145.671875 70.578125 145.765625 C 69.410156 145.859375 68.222656 145.9375 67.015625 146.007812 C 65.808594 146.078125 64.585938 146.136719 63.347656 146.1875 C 62.109375 146.234375 60.863281 146.269531 59.605469 146.292969 C 58.347656 146.316406 57.089844 146.328125 55.828125 146.328125 C 54.566406 146.328125 53.304688 146.316406 52.050781 146.292969 C 50.792969 146.269531 49.546875 146.234375 48.308594 146.1875 C 47.070312 146.136719 45.847656 146.078125 44.636719 146.007812 C 43.429688 145.9375 42.242188 145.859375 41.078125 145.765625 C 39.910156 145.671875 38.769531 145.570312 37.65625 145.453125 C 36.542969 145.339844 35.460938 145.214844 34.414062 145.082031 C 33.363281 144.945312 32.351562 144.800781 31.375 144.648438 C 30.398438 144.496094 29.464844 144.332031 28.570312 144.160156 C 27.679688 143.988281 26.832031 143.808594 26.03125 143.621094 C 25.230469 143.433594 24.480469 143.242188 23.777344 143.039062 C 23.078125 142.835938 22.429688 142.628906 21.832031 142.414062 C 21.238281 142.203125 20.699219 141.984375 20.214844 141.757812 C 19.734375 141.535156 19.308594 141.308594 18.941406 141.074219 C 18.574219 140.84375 18.269531 140.609375 18.023438 140.371094 C 17.777344 140.132812 17.59375 139.894531 17.46875 139.652344 C 17.34375 139.410156 17.28125 139.167969 17.28125 138.925781 C 17.28125 138.683594 17.34375 138.441406 17.46875 138.203125 C 17.59375 137.960938 17.777344 137.722656 18.023438 137.484375 C 18.269531 137.246094 18.574219 137.011719 18.941406 136.777344 C 19.308594 136.546875 19.734375 136.320312 20.214844 136.09375 C 20.699219 135.871094 21.238281 135.652344 21.832031 135.4375 C 22.429688 135.222656 23.078125 135.015625 23.777344 134.816406 C 24.480469 134.613281 25.230469 134.417969 26.03125 134.230469 C 26.832031 134.042969 27.679688 133.863281 28.570312 133.695312 C 29.464844 133.523438 30.398438 133.359375 31.375 133.207031 C 32.351562 133.050781 33.363281 132.90625 34.414062 132.773438 C 35.460938 132.636719 36.542969 132.515625 37.65625 132.398438 C 38.769531 132.285156 39.910156 132.183594 41.078125 132.089844 C 42.242188 131.996094 43.429688 131.914062 44.636719 131.84375 C 45.847656 131.773438 47.070312 131.714844 48.308594 131.667969 C 49.546875 131.621094 50.792969 131.585938 52.050781 131.5625 C 53.304688 131.539062 54.566406 131.527344 55.828125 131.527344 C 57.089844 131.527344 58.347656 131.539062 59.605469 131.5625 C 60.863281 131.585938 62.109375 131.621094 63.347656 131.667969 C 64.585938 131.714844 65.808594 131.773438 67.015625 131.84375 C 68.222656 131.914062 69.410156 131.996094 70.578125 132.089844 C 71.742188 132.183594 72.882812 132.285156 73.996094 132.398438 C 75.109375 132.515625 76.191406 132.636719 77.242188 132.773438 C 78.289062 132.90625 79.304688 133.050781 80.28125 133.207031 C 81.253906 133.359375 82.191406 133.523438 83.082031 133.695312 C 83.976562 133.863281 84.820312 134.042969 85.621094 134.230469 C 86.421875 134.417969 87.175781 134.613281 87.875 134.816406 C 88.578125 135.015625 89.226562 135.222656 89.820312 135.4375 C 90.414062 135.652344 90.953125 135.871094 91.4375 136.09375 C 91.921875 136.320312 92.34375 136.546875 92.710938 136.777344 C 93.078125 137.011719 93.386719 137.246094 93.632812 137.484375 C 93.878906 137.722656 94.0625 137.960938 94.1875 138.203125 C 94.308594 138.441406 94.371094 138.683594 94.371094 138.925781 Z M 94.371094 138.925781 " fill-opacity="1" fill-rule="nonzero"/></g><g clip-path="url(#184ea7a6d9)"><path fill="#ffffff" d="M 105.160156 107.636719 C 94.5625 99.351562 90.09375 83.230469 88.261719 69.871094 C 85.347656 48.683594 90.683594 4.257812 57.3125 4.257812 C 28.09375 4.257812 25.9375 45.664062 22.808594 65.613281 C 20.40625 80.945312 10.484375 100.410156 6.023438 108.601562 C 5.835938 108.949219 5.675781 109.3125 5.546875 109.683594 C 5.421875 110.058594 5.324219 110.441406 5.265625 110.832031 C 5.203125 111.226562 5.175781 111.617188 5.183594 112.015625 C 5.191406 112.410156 5.234375 112.800781 5.3125 113.191406 C 5.386719 113.578125 5.496094 113.957031 5.636719 114.328125 C 5.777344 114.695312 5.953125 115.050781 6.15625 115.390625 C 6.359375 115.730469 6.589844 116.046875 6.851562 116.347656 C 7.109375 116.644531 7.390625 116.921875 7.699219 117.171875 C 11.128906 119.933594 16.945312 122.007812 25.5625 116.9375 C 25.855469 116.765625 26.136719 116.617188 26.417969 116.457031 C 29.257812 113.558594 35.148438 105.84375 38.027344 89.589844 L 38.648438 89.703125 C 36.078125 104.160156 31.265625 111.878906 28.132812 115.5625 C 40.582031 109.609375 45.988281 117.582031 47.5 120.765625 C 49.121094 124.164062 55.851562 131.125 67.933594 124.109375 C 72.722656 121.332031 77.648438 123.492188 81.484375 126.507812 C 81.765625 126.722656 82.058594 126.917969 82.363281 127.09375 C 80.925781 123.636719 79.195312 119.035156 78.023438 115.125 L 78.628906 114.941406 C 79.875 119.089844 81.753906 124.03125 83.253906 127.53125 C 83.976562 127.847656 84.730469 128.039062 85.519531 128.101562 C 86.304688 128.167969 87.082031 128.105469 87.847656 127.910156 C 88.613281 127.71875 89.324219 127.40625 89.988281 126.976562 C 90.648438 126.546875 91.222656 126.019531 91.710938 125.398438 C 93.109375 123.554688 94.96875 121.054688 98.089844 120.777344 C 107.179688 119.929688 109.609375 111.113281 105.160156 107.636719 Z M 39.125 86.347656 L 39.039062 87.277344 L 38.40625 87.222656 L 38.492188 86.285156 C 38.890625 82.09375 39.808594 72.269531 39.855469 68.089844 L 40.488281 68.089844 C 40.441406 72.304688 39.550781 81.8125 39.125 86.347656 Z M 48.882812 117.808594 C 48.566406 104.613281 46.316406 90.070312 46.316406 89.921875 L 46.941406 89.824219 C 46.941406 89.96875 49.210938 104.554688 49.535156 117.792969 Z M 64.394531 96.636719 L 63.765625 96.699219 C 61.644531 75.546875 64.316406 61.601562 64.34375 61.464844 L 64.964844 61.585938 C 64.964844 61.726562 62.3125 75.582031 64.417969 96.636719 Z M 76.601562 110.0625 C 70.238281 85.835938 68.765625 58.15625 68.75 57.878906 L 69.378906 57.847656 C 69.378906 58.125 70.871094 85.742188 77.210938 109.902344 Z M 88.628906 116.308594 C 84.035156 108.394531 83.980469 95.84375 83.980469 95.722656 L 84.613281 95.722656 C 84.613281 95.84375 84.664062 108.222656 89.179688 115.988281 Z M 97.714844 115.28125 C 88.710938 107.976562 86.457031 92.710938 86.417969 92.558594 L 87.042969 92.46875 C 87.042969 92.621094 89.289062 107.644531 98.089844 114.789062 Z M 97.714844 115.28125 " fill-opacity="1" fill-rule="nonzero"/></g><path fill="#000000" d="M 47.515625 37.46875 C 47.515625 38.203125 47.476562 38.933594 47.394531 39.65625 C 47.3125 40.378906 47.191406 41.078125 47.03125 41.757812 C 46.875 42.4375 46.675781 43.085938 46.445312 43.695312 C 46.210938 44.308594 45.949219 44.875 45.652344 45.394531 C 45.359375 45.917969 45.035156 46.382812 44.6875 46.789062 C 44.34375 47.199219 43.976562 47.542969 43.589844 47.828125 C 43.203125 48.109375 42.804688 48.320312 42.394531 48.464844 C 41.984375 48.609375 41.570312 48.679688 41.152344 48.679688 C 40.734375 48.679688 40.324219 48.609375 39.914062 48.464844 C 39.503906 48.320312 39.105469 48.109375 38.71875 47.828125 C 38.332031 47.542969 37.964844 47.199219 37.617188 46.789062 C 37.269531 46.382812 36.949219 45.917969 36.65625 45.394531 C 36.359375 44.875 36.09375 44.308594 35.863281 43.695312 C 35.632812 43.085938 35.433594 42.4375 35.273438 41.757812 C 35.113281 41.078125 34.996094 40.378906 34.914062 39.65625 C 34.832031 38.933594 34.789062 38.203125 34.789062 37.46875 C 34.789062 36.730469 34.832031 36.003906 34.914062 35.28125 C 34.996094 34.558594 35.113281 33.855469 35.273438 33.175781 C 35.433594 32.496094 35.632812 31.851562 35.863281 31.238281 C 36.09375 30.625 36.359375 30.058594 36.65625 29.539062 C 36.949219 29.019531 37.269531 28.554688 37.617188 28.144531 C 37.964844 27.734375 38.332031 27.390625 38.71875 27.109375 C 39.105469 26.828125 39.503906 26.613281 39.914062 26.472656 C 40.324219 26.328125 40.734375 26.253906 41.152344 26.253906 C 41.570312 26.253906 41.984375 26.328125 42.394531 26.472656 C 42.804688 26.613281 43.203125 26.828125 43.589844 27.109375 C 43.976562 27.390625 44.34375 27.734375 44.6875 28.144531 C 45.035156 28.554688 45.359375 29.019531 45.652344 29.539062 C 45.949219 30.058594 46.210938 30.625 46.445312 31.238281 C 46.675781 31.851562 46.875 32.496094 47.03125 33.175781 C 47.191406 33.855469 47.3125 34.558594 47.394531 35.28125 C 47.476562 36.003906 47.515625 36.730469 47.515625 37.46875 Z M 47.515625 37.46875 " fill-opacity="1" fill-rule="nonzero"/><path fill="#ffffff" d="M 37.296875 43.292969 C 34.460938 33.019531 39.269531 28.910156 39.476562 28.75 L 39.875 29.265625 C 39.828125 29.304688 35.191406 33.292969 37.90625 43.164062 Z M 37.296875 43.292969 " fill-opacity="1" fill-rule="nonzero"/><path fill="#ffffff" d="M 38.710938 46 C 38.273438 45.421875 37.902344 44.804688 37.605469 44.144531 L 38.179688 43.882812 C 38.460938 44.488281 38.804688 45.054688 39.207031 45.589844 Z M 38.710938 46 " fill-opacity="1" fill-rule="nonzero"/><path fill="#000000" d="M 63.664062 37.46875 C 63.664062 38.203125 63.625 38.933594 63.542969 39.65625 C 63.460938 40.378906 63.339844 41.078125 63.179688 41.757812 C 63.019531 42.4375 62.824219 43.085938 62.59375 43.695312 C 62.359375 44.308594 62.097656 44.875 61.800781 45.394531 C 61.503906 45.917969 61.183594 46.382812 60.835938 46.789062 C 60.488281 47.199219 60.121094 47.542969 59.734375 47.828125 C 59.351562 48.109375 58.953125 48.320312 58.542969 48.464844 C 58.132812 48.609375 57.71875 48.679688 57.300781 48.679688 C 56.882812 48.679688 56.46875 48.609375 56.058594 48.464844 C 55.648438 48.320312 55.253906 48.109375 54.867188 47.828125 C 54.480469 47.542969 54.113281 47.199219 53.765625 46.789062 C 53.417969 46.382812 53.097656 45.917969 52.800781 45.394531 C 52.507812 44.875 52.242188 44.308594 52.011719 43.695312 C 51.777344 43.085938 51.582031 42.4375 51.421875 41.757812 C 51.261719 41.078125 51.140625 40.378906 51.058594 39.65625 C 50.980469 38.933594 50.9375 38.203125 50.9375 37.46875 C 50.9375 36.730469 50.980469 36.003906 51.058594 35.28125 C 51.140625 34.558594 51.261719 33.855469 51.421875 33.175781 C 51.582031 32.496094 51.777344 31.851562 52.011719 31.238281 C 52.242188 30.625 52.507812 30.058594 52.800781 29.539062 C 53.097656 29.019531 53.417969 28.554688 53.765625 28.144531 C 54.113281 27.734375 54.480469 27.390625 54.867188 27.109375 C 55.253906 26.828125 55.648438 26.613281 56.058594 26.472656 C 56.46875 26.328125 56.882812 26.253906 57.300781 26.253906 C 57.71875 26.253906 58.132812 26.328125 58.542969 26.472656 C 58.953125 26.613281 59.351562 26.828125 59.734375 27.109375 C 60.121094 27.390625 60.488281 27.734375 60.835938 28.144531 C 61.183594 28.554688 61.503906 29.019531 61.800781 29.539062 C 62.097656 30.058594 62.359375 30.625 62.59375 31.238281 C 62.824219 31.851562 63.019531 32.496094 63.179688 33.175781 C 63.339844 33.855469 63.460938 34.558594 63.542969 35.28125 C 63.625 36.003906 63.664062 36.730469 63.664062 37.46875 Z M 63.664062 37.46875 " fill-opacity="1" fill-rule="nonzero"/><path fill="#ffffff" d="M 53.464844 43.292969 C 50.609375 33.019531 55.410156 28.910156 55.617188 28.75 L 56.023438 29.265625 C 55.972656 29.304688 51.339844 33.292969 54.050781 43.164062 Z M 53.464844 43.292969 " fill-opacity="1" fill-rule="nonzero"/><path fill="#ffffff" d="M 54.855469 46 C 54.417969 45.421875 54.046875 44.804688 53.746094 44.144531 L 54.324219 43.882812 C 54.601562 44.488281 54.945312 45.058594 55.347656 45.589844 Z M 54.855469 46 " fill-opacity="1" fill-rule="nonzero"/></svg>