<?xml version="1.0" standalone="no"?>
<!DOCTYPE svg PUBLIC "-//W3C//DTD SVG 20010904//EN"
 "http://www.w3.org/TR/2001/REC-SVG-20010904/DTD/svg10.dtd">
<svg version="1.0" xmlns="http://www.w3.org/2000/svg"
 width="364.000000pt" height="685.000000pt" viewBox="0 165 320.000000 450.000000"
 preserveAspectRatio="xMidYMid meet">

<g transform="translate(0.000000,685.000000) scale(0.100000,-0.100000)"
fill="white" stroke="none">
<path d="M1170 5173 c-54 -9 -137 -36 -185 -60 -167 -83 -292 -258 -317 -444
l-12 -85 -66 -31 c-76 -37 -164 -119 -203 -192 -127 -233 -33 -521 210 -637
72 -35 86 -38 185 -42 l108 -5 0 -638 0 -639 865 0 865 0 0 640 0 640 63 0
c183 0 335 93 417 254 39 77 43 92 48 179 4 78 1 107 -17 165 -47 156 -168
273 -323 312 l-44 11 -16 80 c-22 104 -56 177 -123 259 -86 107 -178 166 -312
201 -91 23 -194 24 -282 4 -87 -21 -212 -88 -266 -143 l-45 -45 -65 62 c-122
117 -323 181 -485 154z"/>
<path d="M617 1800 c-85 -22 -162 -83 -203 -162 -23 -44 -30 -154 -14 -204 7
-21 30 -62 51 -90 134 -182 361 -270 589 -230 68 12 110 28 211 79 145 75 228
103 334 113 l75 7 0 108 c0 125 7 119 -99 94 -83 -20 -176 -65 -242 -117 -165
-130 -301 -175 -457 -148 -141 24 -307 133 -333 221 -23 76 14 158 87 190 83
37 166 5 209 -80 26 -53 54 -69 95 -56 84 27 3 201 -118 253 -58 25 -134 34
-185 22z"/>
<path d="M2760 1796 c-99 -28 -187 -116 -197 -197 -7 -47 16 -79 56 -79 35 1
56 18 74 62 17 41 68 83 114 93 110 23 215 -91 183 -200 -27 -91 -198 -204
-341 -226 -146 -23 -277 17 -419 126 -85 65 -186 117 -275 140 -100 26 -95 31
-95 -94 l0 -108 78 -7 c99 -9 205 -45 312 -106 208 -118 404 -128 607 -30 100
49 197 138 239 222 52 102 34 231 -45 321 -65 74 -195 111 -291 83z"/>
</g>
</svg>
